<svg width="660" height="472" viewBox="0 0 660 472" fill="none" xmlns="http://www.w3.org/2000/svg">
<g clip-path="url(#clip0_12_159)">
<path d="M219.637 237.745L236.091 219.47L252.546 201.196L269 182.921L285.455 164.646L301.909 146.372L318.364 128.097L334.818 109.823L351.273 91.5481L367.727 73.2735L384.182 54.9988L400.636 36.7242L417.091 18.4496L433.545 0.175045L449.774 18.199L466.229 -0.0755787L482.458 17.9484L498.687 35.9724L514.915 53.9964L531.144 72.0203L547.373 90.0443L563.602 108.068L579.831 126.092L596.06 144.116L612.289 162.14L628.517 180.164L644.746 198.188L660.975 216.212L677.204 234.236L660.75 252.511L644.295 270.785L627.84 289.06L611.386 307.335L594.931 325.609L578.477 343.884L562.022 362.158L545.568 380.433L529.113 398.708L512.659 416.982L496.204 435.257L479.75 453.531L463.295 471.806L447.066 453.782L430.612 472.057L414.383 454.033L398.154 436.009L381.925 417.985L365.696 399.961L349.467 381.937L333.239 363.913L317.01 345.889L300.781 327.865L284.552 309.841L268.323 291.817L252.094 273.793L235.865 255.769L219.637 237.745Z" fill="#C7C7C7" fill-opacity="0.46"/>
<path d="M0 481.676L439.105 -6M32.4577 481.676L471.563 -6M64.9155 481.676L504.021 -6M97.3732 481.676L536.479 -6M129.831 481.676L568.936 -6M162.289 481.676L601.394 -6M194.746 481.676L633.852 -6M227.204 481.676L666.31 -6M259.662 481.676L698.767 -6M292.12 481.676L731.225 -6M324.577 481.676L763.683 -6M357.035 481.676L796.14 -6M389.493 481.676L828.598 -6M421.95 481.676L861.056 -6M454.408 481.676L893.514 -6M0.167702 -5.99998L439.273 481.676M33.0768 -5.99998L472.182 481.676M65.9858 -5.99998L505.091 481.676M98.8949 -5.99998L538 481.676M131.804 -5.99998L570.909 481.676M164.713 -5.99998L603.818 481.676M197.622 -5.99998L636.728 481.676M230.531 -5.99998L669.637 481.676M263.44 -5.99998L702.546 481.676M296.349 -5.99998L735.455 481.676M329.258 -5.99998L768.364 481.676M362.167 -5.99998L801.273 481.676M395.076 -5.99998L834.182 481.676M427.985 -5.99998L867.091 481.676M460.894 -5.99998L900 481.676" stroke="white"/>
</g>
<defs>
<clipPath id="clip0_12_159">
<rect width="900" height="472" fill="white"/>
</clipPath>
</defs>
</svg>
