<svg width="339" height="43" viewBox="0 0 339 43" fill="none" xmlns="http://www.w3.org/2000/svg">
<g clip-path="url(#clip0_2693_3203)">
<path d="M15.9593 7.96614L29.0472 5.4455M23.5788 3.01375L50.1698 0.444777L52.4396 0.570441L29.9139 4.14156L23.5788 3.01375ZM22.5779 2.81316C22.5603 2.81486 22.5438 2.81959 22.5287 2.82681L22.4451 2.81192L15.698 7.54697L15.2408 13.3588L7.59091 15.5429L7.59232 15.5651L1.03044 20.2724L0.297058 29.5946L5.72406 36.8451L13.0578 37.8809L19.4611 33.2562C19.4675 33.2526 19.4736 33.2486 19.4797 33.2441L27.2066 27.4332L26.552 34.4776L31.979 41.7281L39.313 42.7638L45.7665 38.1768L45.7791 38.0434L59.534 12.6527C59.5456 12.6327 59.5527 12.6097 59.5539 12.5849L59.703 9.36819L57.7881 6.79236L55.1879 6.24982L55.6004 2.97301L53.497 0.332594L50.1774 0.148814C50.1694 0.148232 50.1611 0.148318 50.1528 0.149122L22.5779 2.81316ZM39.7028 42.1247L45.4447 38.0436L45.4928 37.9549L46.0872 31.6585L39.7028 42.1247ZM46.1336 31.0176C46.1384 31.0097 46.1439 31.0025 46.1497 30.9959L46.3438 28.9406L44.518 26.4848L32.3521 41.4819L39.1635 42.444L46.1336 31.0176ZM59.2624 12.5372L59.3874 9.83977L46.6254 29.0796L45.8497 37.2961L59.2624 12.5372ZM32.0715 41.3606L26.9088 34.4632C26.9219 34.4567 26.9342 34.4484 26.9455 34.4379L40.2764 21.8759L41.2028 22.0254L44.3368 26.2409L32.0715 41.3606ZM26.8824 34.0922L39.9095 21.8167L34.0996 20.8789L27.7141 25.1735L27.5788 27.0828C27.5758 27.1261 27.5558 27.1662 27.5234 27.1944L26.8824 34.0922ZM59.3421 9.376L46.5277 28.6947L41.5276 21.9692L57.6733 7.13129L59.3421 9.376ZM57.3721 7.00778L55.1155 6.53692L34.2098 20.597L41.3339 21.7469L57.3721 7.00778ZM54.8608 6.35254L34.21 20.2413L35.036 11.4924L55.2596 3.33149L54.8889 6.2755C54.8767 6.29215 54.8678 6.31166 54.8635 6.33323C54.8622 6.33969 54.8613 6.34615 54.8608 6.35254ZM55.2568 3.01392L53.4119 0.698279L53.4146 0.715437L30.1172 4.40888L35.0133 11.1827L55.2568 3.01392ZM22.5132 3.12456L16.349 7.45065L30.1423 4.94592L29.7581 4.41437L22.5132 3.12456ZM15.5418 13.2728L15.9707 7.82001L30.3345 5.21173L33.7056 9.87592L15.2837 16.5547L15.3161 16.1422L15.5696 13.2649L15.5418 13.2728ZM15.3502 16.8452L33.8858 10.1251L34.7567 11.3299L34.311 16.0497L20.4514 23.7069L15.3502 16.8452ZM20.7614 23.8731L27.6513 24.8462L33.8999 20.4049L34.2774 16.4057L20.7614 23.8731ZM7.70387 15.8481L15.0544 16.989L15.8786 18.0902L1.38022 20.3847L7.70387 15.8481ZM20.2338 23.9089L19.2156 22.5484L0.648265 29.5727L5.84673 36.5179L19.7331 28.492L20.2338 23.9089ZM19.6932 28.8561L6.25742 36.6216L12.9824 37.5715L19.2268 33.0616L19.5236 30.4079L19.6932 28.8561ZM16.0791 18.3581L19.0312 22.3021L0.616987 29.2684L1.29121 20.6982L16.0791 18.3581ZM27.2434 27.0363L19.5554 32.818L19.8153 30.4402L20.5205 24.1397L27.4203 25.1341L27.2434 27.0363ZM8.32999 15.6395L15.216 13.6734L15.0238 16.1173L14.9789 16.626L8.32999 15.6395Z" stroke="#0A365D"/>
</g>
<path d="M77.9 32.24C76.64 32.24 75.5 32.05 74.48 31.67C73.48 31.27 72.63 30.67 71.93 29.87C71.23 29.05 70.69 28.02 70.31 26.78C69.95 25.54 69.77 24.07 69.77 22.37V19.97C69.77 16.91 70.49 14.61 71.93 13.07C73.37 11.53 75.36 10.76 77.9 10.76C80.24 10.76 82.05 11.33 83.33 12.47C84.63 13.59 85.44 15.23 85.76 17.39H82.16C81.88 16.19 81.41 15.31 80.75 14.75C80.11 14.17 79.16 13.88 77.9 13.88C76.48 13.88 75.36 14.35 74.54 15.29C73.74 16.23 73.34 17.79 73.34 19.97V22.37C73.34 23.63 73.44 24.69 73.64 25.55C73.86 26.41 74.16 27.11 74.54 27.65C74.94 28.17 75.42 28.55 75.98 28.79C76.54 29.01 77.18 29.12 77.9 29.12C79.18 29.12 80.13 28.83 80.75 28.25C81.39 27.65 81.86 26.73 82.16 25.49H85.76C85.42 27.79 84.6 29.49 83.3 30.59C82 31.69 80.2 32.24 77.9 32.24ZM89.6765 20.38H85.6565V18H96.5365V20.38H92.5165V32H89.6765V20.38ZM99.4824 18H102.482L107.342 32H104.282L103.342 29.22H98.5424L97.5824 32H94.6224L99.4824 18ZM102.542 26.82L100.942 21.56L99.3224 26.82H102.542ZM107.53 18H110.39V23.6H115.59V18H118.45V32H115.59V26H110.39V32H107.53V18ZM120.034 18H122.894V23.64H124.154L127.714 18H130.934L126.514 24.68L131.334 32H127.954L124.154 26.02H122.894V32H120.034V18ZM135.899 32.18C134.179 32.18 132.819 31.6467 131.819 30.58C130.832 29.5 130.339 27.8467 130.339 25.62V24.02C130.339 21.98 130.832 20.44 131.819 19.4C132.819 18.3467 134.179 17.82 135.899 17.82C137.619 17.82 138.972 18.3467 139.959 19.4C140.959 20.44 141.459 21.98 141.459 24.02V25.62C141.459 27.8467 140.959 29.5 139.959 30.58C138.972 31.6467 137.619 32.18 135.899 32.18ZM135.899 29.72C136.312 29.72 136.685 29.6533 137.019 29.52C137.365 29.3867 137.652 29.16 137.879 28.84C138.105 28.52 138.279 28.1 138.399 27.58C138.532 27.0467 138.599 26.3933 138.599 25.62V24.02C138.599 22.6733 138.359 21.7133 137.879 21.14C137.399 20.5667 136.739 20.28 135.899 20.28C135.059 20.28 134.399 20.5667 133.919 21.14C133.439 21.7133 133.199 22.6733 133.199 24.02V25.62C133.199 26.3933 133.259 27.0467 133.379 27.58C133.512 28.1 133.692 28.52 133.919 28.84C134.145 29.16 134.425 29.3867 134.759 29.52C135.092 29.6533 135.472 29.72 135.899 29.72ZM150.902 32.24C149.642 32.24 148.502 32.05 147.482 31.67C146.482 31.27 145.632 30.67 144.932 29.87C144.232 29.05 143.692 28.02 143.312 26.78C142.952 25.54 142.772 24.07 142.772 22.37V19.97C142.772 16.91 143.492 14.61 144.932 13.07C146.372 11.53 148.362 10.76 150.902 10.76C153.242 10.76 155.052 11.33 156.332 12.47C157.632 13.59 158.442 15.23 158.762 17.39H155.162C154.882 16.19 154.412 15.31 153.752 14.75C153.112 14.17 152.162 13.88 150.902 13.88C149.482 13.88 148.362 14.35 147.542 15.29C146.742 16.23 146.342 17.79 146.342 19.97V22.37C146.342 23.63 146.442 24.69 146.642 25.55C146.862 26.41 147.162 27.11 147.542 27.65C147.942 28.17 148.422 28.55 148.982 28.79C149.542 29.01 150.182 29.12 150.902 29.12C152.182 29.12 153.132 28.83 153.752 28.25C154.392 27.65 154.862 26.73 155.162 25.49H158.762C158.422 27.79 157.602 29.49 156.302 30.59C155.002 31.69 153.202 32.24 150.902 32.24ZM162.678 20.38H158.658V18H169.538V20.38H165.518V32H162.678V20.38ZM172.484 18H175.484L180.344 32H177.284L176.344 29.22H171.544L170.584 32H167.624L172.484 18ZM175.544 26.82L173.944 21.56L172.324 26.82H175.544ZM179.663 29.38C180.116 29.3267 180.489 29.2133 180.783 29.04C181.076 28.8667 181.309 28.5733 181.483 28.16C181.656 27.7333 181.769 27.1667 181.823 26.46C181.889 25.74 181.923 24.82 181.923 23.7V18H191.443V32H188.583V20.38H184.583V23.7C184.583 25.3667 184.496 26.74 184.323 27.82C184.163 28.8867 183.889 29.74 183.503 30.38C183.116 31.0067 182.609 31.4533 181.983 31.72C181.356 31.9867 180.583 32.14 179.663 32.18V29.38ZM193.017 18H195.877V23.06H198.097C199.03 23.06 199.837 23.1667 200.517 23.38C201.21 23.5933 201.783 23.9 202.237 24.3C202.69 24.6867 203.03 25.16 203.257 25.72C203.483 26.2667 203.597 26.8733 203.597 27.54C203.597 28.2067 203.483 28.8133 203.257 29.36C203.03 29.9067 202.69 30.38 202.237 30.78C201.783 31.1667 201.21 31.4667 200.517 31.68C199.837 31.8933 199.03 32 198.097 32H193.017V18ZM198.097 29.62C199.043 29.62 199.717 29.44 200.117 29.08C200.53 28.72 200.737 28.2067 200.737 27.54C200.737 26.8733 200.53 26.36 200.117 26C199.717 25.64 199.043 25.46 198.097 25.46H195.877V29.62H198.097ZM205.38 11H208.95V19.79H211.47L217.32 11H221.37L214.44 21.11L221.97 32H217.68L211.47 22.82H208.95V32H205.38V11ZM227.674 32.18C225.954 32.18 224.594 31.6467 223.594 30.58C222.608 29.5 222.114 27.8467 222.114 25.62V24.02C222.114 21.98 222.608 20.44 223.594 19.4C224.594 18.3467 225.954 17.82 227.674 17.82C229.394 17.82 230.748 18.3467 231.734 19.4C232.734 20.44 233.234 21.98 233.234 24.02V25.62C233.234 27.8467 232.734 29.5 231.734 30.58C230.748 31.6467 229.394 32.18 227.674 32.18ZM227.674 29.72C228.088 29.72 228.461 29.6533 228.794 29.52C229.141 29.3867 229.428 29.16 229.654 28.84C229.881 28.52 230.054 28.1 230.174 27.58C230.308 27.0467 230.374 26.3933 230.374 25.62V24.02C230.374 22.6733 230.134 21.7133 229.654 21.14C229.174 20.5667 228.514 20.28 227.674 20.28C226.834 20.28 226.174 20.5667 225.694 21.14C225.214 21.7133 224.974 22.6733 224.974 24.02V25.62C224.974 26.3933 225.034 27.0467 225.154 27.58C225.288 28.1 225.468 28.52 225.694 28.84C225.921 29.16 226.201 29.3867 226.534 29.52C226.868 29.6533 227.248 29.72 227.674 29.72ZM234.317 18H237.177V23.6H242.377V18H245.237V32H242.377V26H237.177V32H234.317V18ZM251.881 32.18C250.161 32.18 248.801 31.64 247.801 30.56C246.815 29.48 246.321 27.8267 246.321 25.6V24C246.321 21.9733 246.815 20.44 247.801 19.4C248.801 18.3467 250.161 17.82 251.881 17.82C252.708 17.82 253.435 17.9267 254.061 18.14C254.688 18.3533 255.221 18.66 255.661 19.06C256.101 19.46 256.448 19.9467 256.701 20.52C256.955 21.08 257.121 21.7133 257.201 22.42H254.341C254.221 21.74 253.975 21.2133 253.601 20.84C253.228 20.4667 252.655 20.28 251.881 20.28C251.041 20.28 250.381 20.5667 249.901 21.14C249.421 21.7 249.181 22.6533 249.181 24V25.6C249.181 26.3733 249.241 27.0267 249.361 27.56C249.495 28.08 249.675 28.5 249.901 28.82C250.128 29.14 250.408 29.3733 250.741 29.52C251.075 29.6533 251.455 29.72 251.881 29.72C252.668 29.72 253.235 29.5333 253.581 29.16C253.941 28.7733 254.195 28.2133 254.341 27.48H257.201C257.028 28.9733 256.508 30.1333 255.641 30.96C254.775 31.7733 253.521 32.18 251.881 32.18ZM260.268 20.38H256.248V18H267.128V20.38H263.108V32H260.268V20.38ZM267.435 18H272.515C274.368 18 275.748 18.42 276.655 19.26C277.561 20.1 278.015 21.2333 278.015 22.66C278.015 24.1 277.561 25.24 276.655 26.08C275.748 26.92 274.368 27.34 272.515 27.34H270.295V32H267.435V18ZM272.515 24.94C273.461 24.94 274.135 24.7533 274.535 24.38C274.948 23.9933 275.155 23.42 275.155 22.66C275.155 21.9 274.948 21.3333 274.535 20.96C274.135 20.5733 273.461 20.38 272.515 20.38H270.295V24.94H272.515ZM279.472 29.78C280.326 29.78 280.926 29.6933 281.272 29.52C281.632 29.3467 281.866 29.12 281.972 28.84L282.112 28.5L277.132 18H280.192L283.432 25.34L286.272 18H289.252L284.792 28.84C284.526 29.5067 284.246 30.06 283.952 30.5C283.672 30.9267 283.332 31.2667 282.932 31.52C282.532 31.7733 282.052 31.9467 281.492 32.04C280.946 32.1333 280.272 32.18 279.472 32.18V29.78ZM289.435 18H292.295V23.64H293.555L297.115 18H300.335L295.915 24.68L300.735 32H297.355L293.555 26.02H292.295V32H289.435V18ZM310.938 32H301.138V18H303.998V29.62H308.798V18H311.658V29.62H313.518V34.6H310.938V32ZM313.837 18H316.697V27.4L322.057 18H324.957V32H322.097V22.6L316.677 32H313.837V18ZM328.536 26.42C327.669 26.0733 327.016 25.5533 326.576 24.86C326.149 24.1667 325.936 23.3533 325.936 22.42C325.936 21.7667 326.043 21.1733 326.256 20.64C326.483 20.0933 326.823 19.6267 327.276 19.24C327.729 18.84 328.289 18.5333 328.956 18.32C329.623 18.1067 330.409 18 331.316 18H336.456V32H333.596V26.88H331.216L328.516 32H325.476L328.536 26.42ZM333.596 24.48V20.38H331.316C330.436 20.38 329.796 20.56 329.396 20.92C328.996 21.28 328.796 21.78 328.796 22.42C328.796 23.0733 328.996 23.58 329.396 23.94C329.796 24.3 330.436 24.48 331.316 24.48H333.596Z" fill="#0A365D"/>
<defs>
<clipPath id="clip0_2693_3203">
<rect width="60" height="43" fill="white"/>
</clipPath>
</defs>
</svg>
