<svg width="345" height="43" viewBox="0 0 345 43" fill="none" xmlns="http://www.w3.org/2000/svg">
<g clip-path="url(#clip0_2403_2482)">
<path fill-rule="evenodd" clip-rule="evenodd" d="M22.5285 2.82877C22.5437 2.82154 22.5601 2.81681 22.5777 2.81512L50.1526 0.151075C50.1609 0.150271 50.1692 0.150185 50.1772 0.150767L53.4968 0.334548L55.6002 2.97497L55.1877 6.25178L57.7879 6.79431L59.7028 9.37015L59.5537 12.5868C59.5525 12.6116 59.5454 12.6347 59.5338 12.6547L45.779 38.0454L45.7663 38.1787L39.3128 42.7658L31.9788 41.73L26.5518 34.4795L27.2064 27.4352L19.4795 33.246C19.4734 33.2505 19.4673 33.2546 19.4609 33.2581L13.0577 37.8828L5.72388 36.8471L0.296875 29.5966L1.03025 20.2744L7.59213 15.567L7.59072 15.5448L15.2406 13.3607L15.6979 7.54892L22.4449 2.81387L22.5285 2.82877ZM50.1697 0.44673L23.5787 3.0157L29.9137 4.14352L52.4394 0.572395L50.1697 0.44673ZM39.7026 42.1266L45.4445 38.0455L45.4926 37.9568L46.087 31.6604L39.7026 42.1266ZM46.1495 30.9979C46.1437 31.0045 46.1382 31.0117 46.1335 31.0196L39.1634 42.4459L32.3519 41.4839L44.5178 26.4868L46.3436 28.9426L46.1495 30.9979ZM59.3872 9.84172L59.2622 12.5391L45.8495 37.298L46.6252 29.0816L59.3872 9.84172ZM26.9087 34.4651L32.0713 41.3625L44.3366 26.2429L41.2026 22.0274L40.2762 21.8778L26.9453 34.4398C26.9341 34.4503 26.9217 34.4587 26.9087 34.4651ZM39.9094 21.8186L26.8822 34.0942L27.5232 27.1963C27.5556 27.1682 27.5756 27.128 27.5786 27.0847L27.7139 25.1755L34.0995 20.8809L39.9094 21.8186ZM46.5275 28.6967L59.3419 9.37795L57.6731 7.13325L41.5274 21.9712L46.5275 28.6967ZM55.1153 6.53887L57.3719 7.00973L41.3338 21.7488L34.2096 20.5989L55.1153 6.53887ZM34.2098 20.2432L54.8606 6.3545C54.8611 6.3481 54.862 6.34164 54.8633 6.33518C54.8676 6.31361 54.8765 6.2941 54.8887 6.27746L55.2594 3.33344L35.0358 11.4943L34.2098 20.2432ZM53.4117 0.700232L55.2566 3.01587L35.0131 11.1847L30.117 4.41084L53.4144 0.71739L53.4117 0.700232ZM16.3488 7.4526L22.5131 3.12652L29.7579 4.41632L30.1421 4.94787L16.3488 7.4526ZM15.9705 7.82197L15.5416 13.2748L15.5694 13.2669L15.3159 16.1441L15.2835 16.5566L33.7054 9.87788L30.3343 5.21368L15.9705 7.82197ZM33.8856 10.1271L15.35 16.8471L20.4512 23.7088L34.3108 16.0517L34.7565 11.3318L33.8856 10.1271ZM27.6511 24.8481L20.7612 23.875L34.2772 16.4077L33.8997 20.4068L27.6511 24.8481ZM15.0542 16.991L7.70368 15.85L1.38003 20.3866L15.8785 18.0922L15.0542 16.991ZM19.2154 22.5504L20.2337 23.9108L19.7329 28.494L5.84655 36.5199L0.648081 29.5747L19.2154 22.5504ZM6.25724 36.6235L19.6931 28.8581L19.5235 30.4098L19.2266 33.0635L12.9822 37.5734L6.25724 36.6235ZM19.031 22.3041L16.079 18.3601L1.29102 20.7002L0.616804 29.2704L19.031 22.3041ZM19.5552 32.8199L27.2433 27.0383L27.4201 25.1361L20.5203 24.1417L19.8151 30.4422L19.5552 32.8199ZM15.2158 13.6754L8.32981 15.6415L14.9788 16.6279L15.0236 16.1193L15.2158 13.6754Z" fill="#868789"/>
<path d="M15.9591 7.96809L29.047 5.44745M23.5787 3.0157L50.1697 0.44673L52.4394 0.572395L29.9137 4.14352L23.5787 3.0157ZM22.5777 2.81512C22.5601 2.81681 22.5437 2.82154 22.5285 2.82877L22.4449 2.81387L15.6979 7.54892L15.2406 13.3607L7.59072 15.5448L7.59213 15.567L1.03025 20.2744L0.296875 29.5966L5.72388 36.8471L13.0577 37.8828L19.4609 33.2581C19.4673 33.2546 19.4734 33.2505 19.4795 33.246L27.2064 27.4352L26.5518 34.4795L31.9788 41.73L39.3128 42.7658L45.7663 38.1787L45.779 38.0454L59.5338 12.6547C59.5454 12.6347 59.5525 12.6116 59.5537 12.5868L59.7028 9.37015L57.7879 6.79431L55.1877 6.25178L55.6002 2.97497L53.4968 0.334548L50.1772 0.150767C50.1692 0.150185 50.1609 0.150271 50.1526 0.151075L22.5777 2.81512ZM39.7026 42.1266L45.4445 38.0455L45.4926 37.9568L46.087 31.6604L39.7026 42.1266ZM46.1335 31.0196C46.1382 31.0117 46.1437 31.0045 46.1495 30.9979L46.3436 28.9426L44.5178 26.4868L32.3519 41.4839L39.1634 42.4459L46.1335 31.0196ZM59.2622 12.5391L59.3872 9.84172L46.6252 29.0816L45.8495 37.298L59.2622 12.5391ZM32.0713 41.3625L26.9087 34.4651C26.9217 34.4587 26.9341 34.4503 26.9453 34.4398L40.2762 21.8778L41.2026 22.0274L44.3366 26.2429L32.0713 41.3625ZM26.8822 34.0942L39.9094 21.8186L34.0995 20.8809L27.7139 25.1755L27.5786 27.0847C27.5756 27.128 27.5556 27.1682 27.5232 27.1963L26.8822 34.0942ZM59.3419 9.37795L46.5275 28.6967L41.5274 21.9712L57.6731 7.13325L59.3419 9.37795ZM57.3719 7.00973L55.1153 6.53887L34.2096 20.5989L41.3338 21.7488L57.3719 7.00973ZM54.8606 6.3545L34.2098 20.2432L35.0358 11.4943L55.2594 3.33344L54.8887 6.27746C54.8765 6.2941 54.8676 6.31361 54.8633 6.33518C54.862 6.34164 54.8611 6.3481 54.8606 6.3545ZM55.2566 3.01587L53.4117 0.700232L53.4144 0.71739L30.117 4.41084L35.0131 11.1847L55.2566 3.01587ZM22.5131 3.12652L16.3488 7.4526L30.1421 4.94787L29.7579 4.41632L22.5131 3.12652ZM15.5416 13.2748L15.9705 7.82197L30.3343 5.21368L33.7054 9.87788L15.2835 16.5566L15.3159 16.1441L15.5694 13.2669L15.5416 13.2748ZM15.35 16.8471L33.8856 10.1271L34.7565 11.3318L34.3108 16.0517L20.4512 23.7088L15.35 16.8471ZM20.7612 23.875L27.6511 24.8481L33.8997 20.4068L34.2772 16.4077L20.7612 23.875ZM7.70368 15.85L15.0542 16.991L15.8785 18.0922L1.38003 20.3866L7.70368 15.85ZM20.2337 23.9108L19.2154 22.5504L0.648081 29.5747L5.84655 36.5199L19.7329 28.494L20.2337 23.9108ZM19.6931 28.8581L6.25724 36.6235L12.9822 37.5734L19.2266 33.0635L19.5235 30.4098L19.6931 28.8581ZM16.079 18.3601L19.031 22.3041L0.616804 29.2704L1.29102 20.7002L16.079 18.3601ZM27.2433 27.0383L19.5552 32.8199L19.8151 30.4422L20.5203 24.1417L27.4201 25.1361L27.2433 27.0383ZM8.32981 15.6415L15.2158 13.6754L15.0236 16.1193L14.9788 16.6279L8.32981 15.6415Z" stroke="white"/>
</g>
<path d="M83.92 31.216C81.856 31.216 80.224 30.568 79.024 29.272C77.84 27.976 77.248 25.992 77.248 23.32V21.4C77.248 18.968 77.84 17.128 79.024 15.88C80.224 14.616 81.856 13.984 83.92 13.984C84.912 13.984 85.784 14.112 86.536 14.368C87.288 14.624 87.928 14.992 88.456 15.472C88.984 15.952 89.4 16.536 89.704 17.224C90.008 17.896 90.208 18.656 90.304 19.504H86.872C86.728 18.688 86.432 18.056 85.984 17.608C85.536 17.16 84.848 16.936 83.92 16.936C82.912 16.936 82.12 17.28 81.544 17.968C80.968 18.64 80.68 19.784 80.68 21.4V23.32C80.68 24.248 80.752 25.032 80.896 25.672C81.056 26.296 81.272 26.8 81.544 27.184C81.816 27.568 82.152 27.848 82.552 28.024C82.952 28.184 83.408 28.264 83.92 28.264C84.864 28.264 85.544 28.04 85.96 27.592C86.392 27.128 86.696 26.456 86.872 25.576H90.304C90.096 27.368 89.472 28.76 88.432 29.752C87.392 30.728 85.888 31.216 83.92 31.216ZM94.3972 19.38H90.3772V17H101.257V19.38H97.2372V31H94.3972V19.38ZM104.703 17H107.703L112.563 31H109.503L108.563 28.22H103.763L102.803 31H99.8431L104.703 17ZM107.763 25.82L106.163 20.56L104.543 25.82H107.763ZM113.251 17H116.111V22.6H121.311V17H124.171V31H121.311V25H116.111V31H113.251V17ZM126.255 17H129.115V22.64H130.375L133.935 17H137.155L132.735 23.68L137.555 31H134.175L130.375 25.02H129.115V31H126.255V17ZM142.62 31.18C140.9 31.18 139.54 30.6467 138.54 29.58C137.553 28.5 137.06 26.8467 137.06 24.62V23.02C137.06 20.98 137.553 19.44 138.54 18.4C139.54 17.3467 140.9 16.82 142.62 16.82C144.34 16.82 145.693 17.3467 146.68 18.4C147.68 19.44 148.18 20.98 148.18 23.02V24.62C148.18 26.8467 147.68 28.5 146.68 29.58C145.693 30.6467 144.34 31.18 142.62 31.18ZM142.62 28.72C143.033 28.72 143.406 28.6533 143.74 28.52C144.086 28.3867 144.373 28.16 144.6 27.84C144.826 27.52 145 27.1 145.12 26.58C145.253 26.0467 145.32 25.3933 145.32 24.62V23.02C145.32 21.6733 145.08 20.7133 144.6 20.14C144.12 19.5667 143.46 19.28 142.62 19.28C141.78 19.28 141.12 19.5667 140.64 20.14C140.16 20.7133 139.92 21.6733 139.92 23.02V24.62C139.92 25.3933 139.98 26.0467 140.1 26.58C140.233 27.1 140.413 27.52 140.64 27.84C140.866 28.16 141.146 28.3867 141.48 28.52C141.813 28.6533 142.193 28.72 142.62 28.72ZM156.143 31.216C154.079 31.216 152.447 30.568 151.247 29.272C150.063 27.976 149.471 25.992 149.471 23.32V21.4C149.471 18.968 150.063 17.128 151.247 15.88C152.447 14.616 154.079 13.984 156.143 13.984C157.135 13.984 158.007 14.112 158.759 14.368C159.511 14.624 160.151 14.992 160.679 15.472C161.207 15.952 161.623 16.536 161.927 17.224C162.231 17.896 162.431 18.656 162.527 19.504H159.095C158.951 18.688 158.655 18.056 158.207 17.608C157.759 17.16 157.071 16.936 156.143 16.936C155.135 16.936 154.343 17.28 153.767 17.968C153.191 18.64 152.903 19.784 152.903 21.4V23.32C152.903 24.248 152.975 25.032 153.119 25.672C153.279 26.296 153.495 26.8 153.767 27.184C154.039 27.568 154.375 27.848 154.775 28.024C155.175 28.184 155.631 28.264 156.143 28.264C157.087 28.264 157.767 28.04 158.183 27.592C158.615 27.128 158.919 26.456 159.095 25.576H162.527C162.319 27.368 161.695 28.76 160.655 29.752C159.615 30.728 158.111 31.216 156.143 31.216ZM166.62 19.38H162.6V17H173.48V19.38H169.46V31H166.62V19.38ZM176.926 17H179.926L184.786 31H181.726L180.786 28.22H175.986L175.026 31H172.066L176.926 17ZM179.986 25.82L178.386 20.56L176.766 25.82H179.986ZM184.604 28.38C185.058 28.3267 185.431 28.2133 185.724 28.04C186.018 27.8667 186.251 27.5733 186.424 27.16C186.598 26.7333 186.711 26.1667 186.764 25.46C186.831 24.74 186.864 23.82 186.864 22.7V17H196.384V31H193.524V19.38H189.524V22.7C189.524 24.3667 189.438 25.74 189.264 26.82C189.104 27.8867 188.831 28.74 188.444 29.38C188.058 30.0067 187.551 30.4533 186.924 30.72C186.298 30.9867 185.524 31.14 184.604 31.18V28.38ZM198.458 17H201.318V22.06H203.538C204.471 22.06 205.278 22.1667 205.958 22.38C206.651 22.5933 207.225 22.9 207.678 23.3C208.131 23.6867 208.471 24.16 208.698 24.72C208.925 25.2667 209.038 25.8733 209.038 26.54C209.038 27.2067 208.925 27.8133 208.698 28.36C208.471 28.9067 208.131 29.38 207.678 29.78C207.225 30.1667 206.651 30.4667 205.958 30.68C205.278 30.8933 204.471 31 203.538 31H198.458V17ZM203.538 28.62C204.485 28.62 205.158 28.44 205.558 28.08C205.971 27.72 206.178 27.2067 206.178 26.54C206.178 25.8733 205.971 25.36 205.558 25C205.158 24.64 204.485 24.46 203.538 24.46H201.318V28.62H203.538ZM210.559 14.2H213.991V20.968H215.503L219.775 14.2H223.639L218.335 22.216L224.119 31H220.063L215.503 23.824H213.991V31H210.559V14.2ZM230.155 31.18C228.435 31.18 227.075 30.6467 226.075 29.58C225.088 28.5 224.595 26.8467 224.595 24.62V23.02C224.595 20.98 225.088 19.44 226.075 18.4C227.075 17.3467 228.435 16.82 230.155 16.82C231.875 16.82 233.228 17.3467 234.215 18.4C235.215 19.44 235.715 20.98 235.715 23.02V24.62C235.715 26.8467 235.215 28.5 234.215 29.58C233.228 30.6467 231.875 31.18 230.155 31.18ZM230.155 28.72C230.568 28.72 230.941 28.6533 231.275 28.52C231.621 28.3867 231.908 28.16 232.135 27.84C232.361 27.52 232.535 27.1 232.655 26.58C232.788 26.0467 232.855 25.3933 232.855 24.62V23.02C232.855 21.6733 232.615 20.7133 232.135 20.14C231.655 19.5667 230.995 19.28 230.155 19.28C229.315 19.28 228.655 19.5667 228.175 20.14C227.695 20.7133 227.455 21.6733 227.455 23.02V24.62C227.455 25.3933 227.515 26.0467 227.635 26.58C227.768 27.1 227.948 27.52 228.175 27.84C228.401 28.16 228.681 28.3867 229.015 28.52C229.348 28.6533 229.728 28.72 230.155 28.72ZM237.298 17H240.158V22.6H245.358V17H248.218V31H245.358V25H240.158V31H237.298V17ZM255.362 31.18C253.642 31.18 252.282 30.64 251.282 29.56C250.295 28.48 249.802 26.8267 249.802 24.6V23C249.802 20.9733 250.295 19.44 251.282 18.4C252.282 17.3467 253.642 16.82 255.362 16.82C256.188 16.82 256.915 16.9267 257.542 17.14C258.168 17.3533 258.702 17.66 259.142 18.06C259.582 18.46 259.928 18.9467 260.182 19.52C260.435 20.08 260.602 20.7133 260.682 21.42H257.822C257.702 20.74 257.455 20.2133 257.082 19.84C256.708 19.4667 256.135 19.28 255.362 19.28C254.522 19.28 253.862 19.5667 253.382 20.14C252.902 20.7 252.662 21.6533 252.662 23V24.6C252.662 25.3733 252.722 26.0267 252.842 26.56C252.975 27.08 253.155 27.5 253.382 27.82C253.608 28.14 253.888 28.3733 254.222 28.52C254.555 28.6533 254.935 28.72 255.362 28.72C256.148 28.72 256.715 28.5333 257.062 28.16C257.422 27.7733 257.675 27.2133 257.822 26.48H260.682C260.508 27.9733 259.988 29.1333 259.122 29.96C258.255 30.7733 257.002 31.18 255.362 31.18ZM264.249 19.38H260.229V17H271.109V19.38H267.089V31H264.249V19.38ZM271.915 17H276.995C278.848 17 280.228 17.42 281.135 18.26C282.042 19.1 282.495 20.2333 282.495 21.66C282.495 23.1 282.042 24.24 281.135 25.08C280.228 25.92 278.848 26.34 276.995 26.34H274.775V31H271.915V17ZM276.995 23.94C277.942 23.94 278.615 23.7533 279.015 23.38C279.428 22.9933 279.635 22.42 279.635 21.66C279.635 20.9 279.428 20.3333 279.015 19.96C278.615 19.5733 277.942 19.38 276.995 19.38H274.775V23.94H276.995ZM284.453 28.78C285.306 28.78 285.906 28.6933 286.253 28.52C286.613 28.3467 286.846 28.12 286.953 27.84L287.093 27.5L282.113 17H285.173L288.413 24.34L291.253 17H294.233L289.773 27.84C289.506 28.5067 289.226 29.06 288.933 29.5C288.653 29.9267 288.313 30.2667 287.913 30.52C287.513 30.7733 287.033 30.9467 286.473 31.04C285.926 31.1333 285.253 31.18 284.453 31.18V28.78ZM294.915 17H297.775V22.64H299.035L302.595 17H305.815L301.395 23.68L306.215 31H302.835L299.035 25.02H297.775V31H294.915V17ZM316.918 31H307.118V17H309.978V28.62H314.778V17H317.638V28.62H319.498V33.6H316.918V31ZM320.317 17H323.177V26.4L328.537 17H331.437V31H328.577V21.6L323.157 31H320.317V17ZM335.517 25.42C334.65 25.0733 333.997 24.5533 333.557 23.86C333.13 23.1667 332.917 22.3533 332.917 21.42C332.917 20.7667 333.023 20.1733 333.237 19.64C333.463 19.0933 333.803 18.6267 334.257 18.24C334.71 17.84 335.27 17.5333 335.937 17.32C336.603 17.1067 337.39 17 338.297 17H343.437V31H340.577V25.88H338.197L335.497 31H332.457L335.517 25.42ZM340.577 23.48V19.38H338.297C337.417 19.38 336.777 19.56 336.377 19.92C335.977 20.28 335.777 20.78 335.777 21.42C335.777 22.0733 335.977 22.58 336.377 22.94C336.777 23.3 337.417 23.48 338.297 23.48H340.577Z" fill="white"/>
<defs>
<clipPath id="clip0_2403_2482">
<rect width="60" height="43" fill="white"/>
</clipPath>
</defs>
</svg>
