<svg width="74" height="23" viewBox="0 0 74 23" fill="none" xmlns="http://www.w3.org/2000/svg">
<path d="M44.6 17.16C43.76 17.16 43 17.0333 42.32 16.78C41.6533 16.5133 41.0867 16.1133 40.62 15.58C40.1533 15.0333 39.7933 14.3467 39.54 13.52C39.3 12.6933 39.18 11.7133 39.18 10.58V8.98C39.18 6.94 39.66 5.40667 40.62 4.38C41.58 3.35333 42.9067 2.84 44.6 2.84C46.16 2.84 47.3667 3.22 48.22 3.98C49.0867 4.72667 49.6267 5.82 49.84 7.26H47.44C47.2533 6.46 46.94 5.87333 46.5 5.5C46.0733 5.11333 45.44 4.92 44.6 4.92C43.6533 4.92 42.9067 5.23333 42.36 5.86C41.8267 6.48667 41.56 7.52667 41.56 8.98V10.58C41.56 11.42 41.6267 12.1267 41.76 12.7C41.9067 13.2733 42.1067 13.74 42.36 14.1C42.6267 14.4467 42.9467 14.7 43.32 14.86C43.6933 15.0067 44.12 15.08 44.6 15.08C45.4533 15.08 46.0867 14.8867 46.5 14.5C46.9267 14.1 47.24 13.4867 47.44 12.66H49.84C49.6133 14.1933 49.0667 15.3267 48.2 16.06C47.3333 16.7933 46.1333 17.16 44.6 17.16Z" fill="#0A365D"/>
<path d="M56.0023 17.16C55.1623 17.16 54.4023 17.0333 53.7223 16.78C53.0557 16.5133 52.489 16.1133 52.0223 15.58C51.5557 15.0333 51.1957 14.3467 50.9423 13.52C50.7023 12.6933 50.5823 11.7133 50.5823 10.58V8.98C50.5823 6.94 51.0623 5.40667 52.0223 4.38C52.9823 3.35333 54.309 2.84 56.0023 2.84C57.5623 2.84 58.769 3.22 59.6223 3.98C60.489 4.72667 61.029 5.82 61.2423 7.26H58.8423C58.6557 6.46 58.3423 5.87333 57.9023 5.5C57.4757 5.11333 56.8423 4.92 56.0023 4.92C55.0557 4.92 54.309 5.23333 53.7623 5.86C53.229 6.48667 52.9623 7.52667 52.9623 8.98V10.58C52.9623 11.42 53.029 12.1267 53.1623 12.7C53.309 13.2733 53.509 13.74 53.7623 14.1C54.029 14.4467 54.349 14.7 54.7223 14.86C55.0957 15.0067 55.5223 15.08 56.0023 15.08C56.8557 15.08 57.489 14.8867 57.9023 14.5C58.329 14.1 58.6423 13.4867 58.8423 12.66H61.2423C61.0157 14.1933 60.469 15.3267 59.6023 16.06C58.7357 16.7933 57.5357 17.16 56.0023 17.16Z" fill="#0A365D"/>
<path d="M62.74 3H65.12V8.86H66.8L70.7 3H73.4L68.78 9.74L73.8 17H70.94L66.8 10.88H65.12V17H62.74V3Z" fill="#0A365D"/>
<path fill-rule="evenodd" clip-rule="evenodd" d="M12.227 2.35258C12.2346 2.34893 12.243 2.34654 12.2518 2.34569L26.1771 1.00035C26.1813 0.999939 26.1855 0.999896 26.1896 1.00019L27.866 1.093L28.9282 2.42641L28.7199 4.0812L30.0329 4.35518L31 5.65598L30.9247 7.2804C30.9241 7.29292 30.9205 7.30457 30.9147 7.31468L23.9685 20.137L23.9621 20.2043L20.703 22.5208L16.9994 21.9977L14.2587 18.3362L14.5893 14.7788L10.6872 17.7133C10.6842 17.7156 10.6811 17.7176 10.6778 17.7194L7.4442 20.0549L3.74064 19.5318L1 15.8703L1.37036 11.1626L4.68411 8.7854L4.68339 8.7742L8.54658 7.67123L8.7775 4.73626L12.1848 2.34506L12.227 2.35258ZM26.1858 1.14965L12.7573 2.44698L15.9565 3.01653L27.332 1.21311L26.1858 1.14965ZM20.8999 22.198L23.7995 20.137L23.8239 20.0923L24.124 16.9126L20.8999 22.198ZM24.1556 16.578C24.1526 16.5813 24.1499 16.5849 24.1475 16.589L20.6276 22.3592L17.1878 21.8734L23.3316 14.2999L24.2536 15.54L24.1556 16.578ZM30.8406 5.89412L30.7775 7.25631L24.0041 19.7596L24.3958 15.6103L30.8406 5.89412ZM14.439 18.329L17.0461 21.8121L23.2401 14.1767L21.6574 12.0479L21.1896 11.9724L14.4575 18.3162C14.4518 18.3215 14.4456 18.3257 14.439 18.329ZM21.0043 11.9425L14.4256 18.1416L14.7493 14.6582C14.7657 14.644 14.7758 14.6237 14.7773 14.6018L14.8456 13.6377L18.0703 11.4689L21.0043 11.9425ZM24.3465 15.4159L30.8178 5.65992L29.975 4.52634L21.8214 12.0195L24.3465 15.4159ZM28.6833 4.22618L29.8229 4.46397L21.7236 11.9072L18.1259 11.3265L28.6833 4.22618ZM18.126 11.1469L28.5547 4.13307C28.5549 4.12984 28.5554 4.12658 28.5561 4.12332C28.5582 4.11243 28.5627 4.10257 28.5689 4.09417L28.7561 2.60744L18.5432 6.72868L18.126 11.1469ZM27.823 1.27767L28.7547 2.44707L18.5317 6.57233L16.0592 3.15153L27.8244 1.28633L27.823 1.27767ZM9.10623 4.68762L12.2192 2.50294L15.8778 3.15429L16.0718 3.42273L9.10623 4.68762ZM8.9152 4.87415L8.6986 7.62782L8.71263 7.62382L8.5846 9.07685L8.56825 9.28514L17.8713 5.91238L16.1689 3.55696L8.9152 4.87415ZM17.9623 6.03821L8.60185 9.43185L11.1779 12.897L18.177 9.03016L18.4021 6.64663L17.9623 6.03821ZM14.8139 13.4724L11.3345 12.9809L18.1601 9.20994L17.9694 11.2295L14.8139 13.4724ZM8.45245 9.50449L4.74044 8.92832L1.54699 11.2193L8.8687 10.0606L8.45245 9.50449ZM10.5539 12.312L11.0681 12.999L10.8152 15.3135L3.80259 19.3666L1.17736 15.8593L10.5539 12.312ZM4.00998 19.4189L10.7951 15.4974L10.7094 16.281L10.5595 17.6211L7.4061 19.8986L4.00998 19.4189ZM10.4607 12.1876L8.96995 10.1959L1.50205 11.3777L1.16156 15.7056L10.4607 12.1876ZM10.7255 17.4981L14.6079 14.5784L14.6973 13.6178L11.2128 13.1156L10.8567 16.2973L10.7255 17.4981ZM8.53405 7.83012L5.05663 8.823L8.41435 9.32116L8.437 9.06429L8.53405 7.83012Z" fill="#868789" fill-opacity="0.02"/>
<path d="M44.6 17.16C43.76 17.16 43 17.0333 42.32 16.78C41.6533 16.5133 41.0867 16.1133 40.62 15.58C40.1533 15.0333 39.7933 14.3467 39.54 13.52C39.3 12.6933 39.18 11.7133 39.18 10.58V8.98C39.18 6.94 39.66 5.40667 40.62 4.38C41.58 3.35333 42.9067 2.84 44.6 2.84C46.16 2.84 47.3667 3.22 48.22 3.98C49.0867 4.72667 49.6267 5.82 49.84 7.26H47.44C47.2533 6.46 46.94 5.87333 46.5 5.5C46.0733 5.11333 45.44 4.92 44.6 4.92C43.6533 4.92 42.9067 5.23333 42.36 5.86C41.8267 6.48667 41.56 7.52667 41.56 8.98V10.58C41.56 11.42 41.6267 12.1267 41.76 12.7C41.9067 13.2733 42.1067 13.74 42.36 14.1C42.6267 14.4467 42.9467 14.7 43.32 14.86C43.6933 15.0067 44.12 15.08 44.6 15.08C45.4533 15.08 46.0867 14.8867 46.5 14.5C46.9267 14.1 47.24 13.4867 47.44 12.66H49.84C49.6133 14.1933 49.0667 15.3267 48.2 16.06C47.3333 16.7933 46.1333 17.16 44.6 17.16Z" stroke="#0A365D" stroke-width="0.2"/>
<path d="M56.0023 17.16C55.1623 17.16 54.4023 17.0333 53.7223 16.78C53.0557 16.5133 52.489 16.1133 52.0223 15.58C51.5557 15.0333 51.1957 14.3467 50.9423 13.52C50.7023 12.6933 50.5823 11.7133 50.5823 10.58V8.98C50.5823 6.94 51.0623 5.40667 52.0223 4.38C52.9823 3.35333 54.309 2.84 56.0023 2.84C57.5623 2.84 58.769 3.22 59.6223 3.98C60.489 4.72667 61.029 5.82 61.2423 7.26H58.8423C58.6557 6.46 58.3423 5.87333 57.9023 5.5C57.4757 5.11333 56.8423 4.92 56.0023 4.92C55.0557 4.92 54.309 5.23333 53.7623 5.86C53.229 6.48667 52.9623 7.52667 52.9623 8.98V10.58C52.9623 11.42 53.029 12.1267 53.1623 12.7C53.309 13.2733 53.509 13.74 53.7623 14.1C54.029 14.4467 54.349 14.7 54.7223 14.86C55.0957 15.0067 55.5223 15.08 56.0023 15.08C56.8557 15.08 57.489 14.8867 57.9023 14.5C58.329 14.1 58.6423 13.4867 58.8423 12.66H61.2423C61.0157 14.1933 60.469 15.3267 59.6023 16.06C58.7357 16.7933 57.5357 17.16 56.0023 17.16Z" stroke="#0A365D" stroke-width="0.2"/>
<path d="M62.74 3H65.12V8.86H66.8L70.7 3H73.4L68.78 9.74L73.8 17H70.94L66.8 10.88H65.12V17H62.74V3Z" stroke="#0A365D" stroke-width="0.2"/>
<path fill-rule="evenodd" clip-rule="evenodd" d="M12.227 2.35258C12.2346 2.34893 12.243 2.34654 12.2518 2.34569L26.1771 1.00035C26.1813 0.999939 26.1855 0.999896 26.1896 1.00019L27.866 1.093L28.9282 2.42641L28.7199 4.0812L30.0329 4.35518L31 5.65598L30.9247 7.2804C30.9241 7.29292 30.9205 7.30457 30.9147 7.31468L23.9685 20.137L23.9621 20.2043L20.703 22.5208L16.9994 21.9977L14.2587 18.3362L14.5893 14.7788L10.6872 17.7133C10.6842 17.7156 10.6811 17.7176 10.6778 17.7194L7.4442 20.0549L3.74064 19.5318L1 15.8703L1.37036 11.1626L4.68411 8.7854L4.68339 8.7742L8.54658 7.67123L8.7775 4.73626L12.1848 2.34506L12.227 2.35258ZM26.1858 1.14965L12.7573 2.44698L15.9565 3.01653L27.332 1.21311L26.1858 1.14965ZM20.8999 22.198L23.7995 20.137L23.8239 20.0923L24.124 16.9126L20.8999 22.198ZM24.1556 16.578C24.1526 16.5813 24.1499 16.5849 24.1475 16.589L20.6276 22.3592L17.1878 21.8734L23.3316 14.2999L24.2536 15.54L24.1556 16.578ZM30.8406 5.89412L30.7775 7.25631L24.0041 19.7596L24.3958 15.6103L30.8406 5.89412ZM14.439 18.329L17.0461 21.8121L23.2401 14.1767L21.6574 12.0479L21.1896 11.9724L14.4575 18.3162C14.4518 18.3215 14.4456 18.3257 14.439 18.329ZM21.0043 11.9425L14.4256 18.1416L14.7493 14.6582C14.7657 14.644 14.7758 14.6237 14.7773 14.6018L14.8456 13.6377L18.0703 11.4689L21.0043 11.9425ZM24.3465 15.4159L30.8178 5.65992L29.975 4.52634L21.8214 12.0195L24.3465 15.4159ZM28.6833 4.22618L29.8229 4.46397L21.7236 11.9072L18.1259 11.3265L28.6833 4.22618ZM18.126 11.1469L28.5547 4.13307C28.5549 4.12984 28.5554 4.12658 28.5561 4.12332C28.5582 4.11243 28.5627 4.10257 28.5689 4.09417L28.7561 2.60744L18.5432 6.72868L18.126 11.1469ZM27.823 1.27767L28.7547 2.44707L18.5317 6.57233L16.0592 3.15153L27.8244 1.28633L27.823 1.27767ZM9.10623 4.68762L12.2192 2.50294L15.8778 3.15429L16.0718 3.42273L9.10623 4.68762ZM8.9152 4.87415L8.6986 7.62782L8.71263 7.62382L8.5846 9.07685L8.56825 9.28514L17.8713 5.91238L16.1689 3.55696L8.9152 4.87415ZM17.9623 6.03821L8.60185 9.43185L11.1779 12.897L18.177 9.03016L18.4021 6.64663L17.9623 6.03821ZM14.8139 13.4724L11.3345 12.9809L18.1601 9.20994L17.9694 11.2295L14.8139 13.4724ZM8.45245 9.50449L4.74044 8.92832L1.54699 11.2193L8.8687 10.0606L8.45245 9.50449ZM10.5539 12.312L11.0681 12.999L10.8152 15.3135L3.80259 19.3666L1.17736 15.8593L10.5539 12.312ZM4.00998 19.4189L10.7951 15.4974L10.7094 16.281L10.5595 17.6211L7.4061 19.8986L4.00998 19.4189ZM10.4607 12.1876L8.96995 10.1959L1.50205 11.3777L1.16156 15.7056L10.4607 12.1876ZM10.7255 17.4981L14.6079 14.5784L14.6973 13.6178L11.2128 13.1156L10.8567 16.2973L10.7255 17.4981ZM8.53405 7.83012L5.05663 8.823L8.41435 9.32116L8.437 9.06429L8.53405 7.83012Z" stroke="#0A365D" stroke-width="0.2"/>
</svg>
